Coordinates
version=1
nRows=5
nColumns=60
inDegrees=yes

Units are S.I. units (second, meters, Newtons, ...)
If the header above contains a line with 'inDegrees', this indicates whether rotational values are in degrees (yes) or radians (no).

endheader
time	pelvis_tilt	pelvis_list	pelvis_rotation	pelvis_tx	pelvis_ty	pelvis_tz	hip_flexion_r	hip_adduction_r	hip_rotation_r	knee_angle_r_beta	knee_angle_r	ankle_angle_r	subtalar_angle_r	mtp_angle_r	hip_flexion_l	hip_adduction_l	hip_rotation_l	knee_angle_l_beta	knee_angle_l	ankle_angle_l	subtalar_angle_l	mtp_angle_l	L5_S1_Flex_Ext	L5_S1_Lat_Bending	L5_S1_axial_rotation	L4_L5_Flex_Ext	L4_L5_Lat_Bending	L4_L5_axial_rotation	L3_L4_Flex_Ext	L3_L4_Lat_Bending	L3_L4_axial_rotation	L2_L3_Flex_Ext	L2_L3_Lat_Bending	L2_L3_axial_rotation	L1_L2_Flex_Ext	L1_L2_Lat_Bending	L1_L2_axial_rotation	L1_T12_Flex_Ext	L1_T12_Lat_Bending	L1_T12_axial_rotation	Abs_r3	Abs_r2	Abs_r1	Abs_t1	Abs_t2	arm_flex_r	arm_add_r	arm_rot_r	elbow_flex_r	pro_sup_r	wrist_flex_r	wrist_dev_r	arm_flex_l	arm_add_l	arm_rot_l	elbow_flex_l	pro_sup_l	wrist_flex_l	wrist_dev_l
     74.73000000	      0.82103195	     -3.58539168	     94.55069678	      0.41102320	      0.89656661	      0.38330327	     29.20494732	     -5.33163133	     -1.27393878	      0.53770237	    -30.80807654	      7.35530350	      0.00000000	      0.00000000	     29.80522074	     -6.00531672	      0.58634800	      0.48230339	    -27.63394897	      5.39995162	      0.00000000	      0.00000000	    -10.42071681	      0.31486632	     -0.02272497	    -19.35231318	      0.41877221	     -0.02414528	    -17.12019564	      0.76556597	     -0.02414528	    -11.90983724	      0.76556597	     -0.01988434	     -9.67667763	      0.64207540	     -0.01846403	     -5.95439758	      0.48772793	     -0.01704372	    -74.43413808	      3.56183080	     -0.12638944	      0.00000000	      0.00000000	     55.73375451	    -23.06695945	     16.55560429	     61.26589611	     63.55078353	     11.31915698	      8.07462803	     64.53312657	    -22.70631617	     27.45472964	     51.48504350	     57.97298020	     21.68248251	      2.88730064
     74.74000000	      0.81211265	     -2.76850005	     94.44557706	      0.41112960	      0.89934100	      0.38036128	     27.80644598	     -5.18874985	     -1.22484697	      0.52736620	    -30.21585758	      7.38149591	      0.00000000	      0.00000000	     28.39897891	     -6.10124270	      0.56876718	      0.47313261	    -27.10850186	      5.53672483	      0.00000000	      0.00000000	    -10.37384828	      0.30845116	     -0.02212538	    -19.26527364	      0.41024004	     -0.02350821	    -17.04319534	      0.74996815	     -0.02350821	    -11.85627120	      0.74996815	     -0.01935971	     -9.63315551	      0.62899360	     -0.01797687	     -5.92761691	      0.47779085	     -0.01659403	    -74.09936089	      3.48926120	     -0.12305472	      0.00000000	      0.00000000	     53.94799021	    -23.29128407	     16.33957329	     62.36840034	     63.68660358	     11.03405250	      8.30644181	     62.65918614	    -23.03011660	     26.85280433	     52.61480990	     58.12354608	     21.56167031	      3.04942930
     74.75000000	      0.80853684	     -2.18651631	     94.35126931	      0.41121018	      0.90160658	      0.37741312	     26.70547990	     -5.10024392	     -1.37461487	      0.51831664	    -29.69735578	      7.48249273	      0.00000000	      0.00000000	     27.29491072	     -6.20301932	      0.36245361	      0.46517910	    -26.65279937	      5.72862436	      0.00000000	      0.00000000	    -10.26181930	      0.29914787	     -0.02868141	    -19.05722462	      0.39786667	     -0.03047400	    -16.85914293	      0.72734814	     -0.03047400	    -11.72823328	      0.72734814	     -0.02509624	     -9.52912540	      0.61002234	     -0.02330365	     -5.86360355	      0.46338005	     -0.02151106	    -73.29914909	      3.38402057	     -0.15951742	      0.00000000	      0.00000000	     52.22808950	    -23.44899956	     16.43308533	     62.89964646	     63.74796656	     10.94534179	      8.41094224	     60.88209314	    -23.27550807	     26.75540058	     53.07836446	     58.17777665	     21.53343957	      3.11771679
     74.76000000	      0.77651430	     -1.19238105	     94.22841500	      0.41125842	      0.90455591	      0.37419339	     25.06178285	     -4.94623745	     -1.15202137	      0.50693861	    -29.04544276	      7.56714739	      0.00000000	      0.00000000	     25.63006986	     -6.27233446	      0.39726174	      0.45481341	    -26.05888911	      5.93311282	      0.00000000	      0.00000000	    -10.23976048	      0.29281539	     -0.02402386	    -19.01625919	      0.38944447	     -0.02552535	    -16.82290249	      0.71195134	     -0.02552535	    -11.70302225	      0.71195134	     -0.02102088	     -9.50864158	      0.59710914	     -0.01951939	     -5.85099914	      0.45357104	     -0.01801790	    -73.14158513	      3.31238625	     -0.13361351	      0.00000000	      0.00000000	     50.40798036	    -23.75322229	     16.08836187	     64.26982128	     63.85858899	     10.74268614	      8.56702219	     58.89162309	    -23.58463005	     25.92129542	     54.53885471	     58.26440866	     21.45177764	      3.15267779
     74.77000000	      0.75369214	     -0.27711071	     94.13227226	      0.41123577	      0.90716302	      0.37099656	     23.64484731	     -4.87338102	     -1.25573273	      0.50019312	    -28.65895481	      7.56275434	      0.00000000	      0.00000000	     24.21494451	     -6.35181201	      0.32505569	      0.44950521	    -25.75475114	      5.98159321	      0.00000000	      0.00000000	    -10.19428044	      0.28298467	     -0.04481927	    -18.93179820	      0.37636961	     -0.04762047	    -16.74818333	      0.68804892	     -0.04762047	    -11.65104311	      0.68804892	     -0.03921686	     -9.46640882	      0.57706234	     -0.03641565	     -5.82501184	      0.43834325	     -0.03361445	    -72.81672575	      3.20117917	     -0.24927131	      0.00000000	      0.00000000	     48.76608242	    -23.85258290	     15.89564866	     65.46907896	     64.66200519	      8.28198634	     11.21247956	     56.64761122	    -23.83771880	     24.46301630	     56.25220534	     59.82577329	     20.22005244	      5.27862985
